<svg width="613" height="362" viewBox="0 0 613 362" fill="none" xmlns="http://www.w3.org/2000/svg">
<path d="M556.002 92H56V184H557L556.002 92Z" fill="#0C0C0C"/>
<path d="M416 149V50L557 92.5V183.5L416 149Z" fill="#B8B8B8"/>
<path d="M307 184V92L416.5 50V149L307 184Z" fill="white"/>
<path d="M197 127V226L307 184V92L197 127Z" fill="#C4C4C4"/>
<path d="M56 183.5V92L126.5 110L197 127V226L56 183.5Z" fill="white"/>
<path d="M117.424 290.859C114.851 290.12 112.976 289.214 111.799 288.141C110.633 287.057 110.049 285.724 110.049 284.141C110.049 282.349 110.763 280.87 112.19 279.703C113.628 278.526 115.492 277.938 117.784 277.938C119.346 277.938 120.737 278.24 121.956 278.844C123.185 279.448 124.133 280.281 124.799 281.344C125.476 282.406 125.815 283.568 125.815 284.828H122.799C122.799 283.453 122.362 282.375 121.487 281.594C120.612 280.802 119.378 280.406 117.784 280.406C116.305 280.406 115.148 280.734 114.315 281.391C113.492 282.036 113.081 282.938 113.081 284.094C113.081 285.021 113.471 285.807 114.253 286.453C115.044 287.089 116.383 287.672 118.268 288.203C120.164 288.734 121.643 289.323 122.706 289.969C123.779 290.604 124.57 291.349 125.081 292.203C125.601 293.057 125.862 294.062 125.862 295.219C125.862 297.062 125.143 298.542 123.706 299.656C122.268 300.76 120.346 301.312 117.94 301.312C116.378 301.312 114.919 301.016 113.565 300.422C112.211 299.818 111.164 298.995 110.424 297.953C109.695 296.911 109.331 295.729 109.331 294.406H112.346C112.346 295.781 112.851 296.87 113.862 297.672C114.883 298.464 116.242 298.859 117.94 298.859C119.523 298.859 120.737 298.536 121.581 297.891C122.424 297.245 122.846 296.365 122.846 295.25C122.846 294.135 122.456 293.276 121.674 292.672C120.893 292.057 119.476 291.453 117.424 290.859ZM156.341 290.484H146.481V298.547H157.934V301H143.481V278.25H157.778V280.719H146.481V288.031H156.341V290.484ZM192.163 293.781C191.882 296.188 190.991 298.047 189.491 299.359C188.002 300.661 186.017 301.312 183.538 301.312C180.851 301.312 178.694 300.349 177.069 298.422C175.455 296.495 174.648 293.917 174.648 290.688V288.5C174.648 286.385 175.023 284.526 175.773 282.922C176.533 281.318 177.606 280.089 178.991 279.234C180.377 278.37 181.981 277.938 183.804 277.938C186.22 277.938 188.158 278.615 189.616 279.969C191.075 281.312 191.924 283.177 192.163 285.562H189.148C188.887 283.75 188.319 282.438 187.444 281.625C186.58 280.812 185.366 280.406 183.804 280.406C181.887 280.406 180.382 281.115 179.288 282.531C178.205 283.948 177.663 285.964 177.663 288.578V290.781C177.663 293.25 178.179 295.214 179.21 296.672C180.241 298.13 181.684 298.859 183.538 298.859C185.205 298.859 186.481 298.484 187.366 297.734C188.262 296.974 188.856 295.656 189.148 293.781H192.163ZM226.048 278.25V293.719C226.038 295.865 225.361 297.62 224.017 298.984C222.684 300.349 220.871 301.115 218.579 301.281L217.783 301.312C215.293 301.312 213.309 300.641 211.829 299.297C210.35 297.953 209.6 296.104 209.579 293.75V278.25H212.548V293.656C212.548 295.302 213.001 296.583 213.908 297.5C214.814 298.406 216.105 298.859 217.783 298.859C219.48 298.859 220.777 298.406 221.673 297.5C222.579 296.594 223.033 295.318 223.033 293.672V278.25H226.048ZM252.886 291.797H247.543V301H244.527V278.25H252.058C254.621 278.25 256.589 278.833 257.964 280C259.35 281.167 260.043 282.865 260.043 285.094C260.043 286.51 259.657 287.745 258.886 288.797C258.126 289.849 257.063 290.635 255.699 291.156L261.043 300.812V301H257.824L252.886 291.797ZM247.543 289.344H252.152C253.641 289.344 254.824 288.958 255.699 288.188C256.584 287.417 257.027 286.385 257.027 285.094C257.027 283.688 256.605 282.609 255.761 281.859C254.928 281.109 253.72 280.729 252.136 280.719H247.543V289.344ZM290.881 290.484H281.021V298.547H292.474V301H278.021V278.25H292.318V280.719H281.021V288.031H290.881V290.484ZM348.401 293.781C348.119 296.188 347.229 298.047 345.729 299.359C344.239 300.661 342.255 301.312 339.776 301.312C337.088 301.312 334.932 300.349 333.307 298.422C331.692 296.495 330.885 293.917 330.885 290.688V288.5C330.885 286.385 331.26 284.526 332.01 282.922C332.77 281.318 333.843 280.089 335.229 279.234C336.614 278.37 338.218 277.938 340.041 277.938C342.458 277.938 344.395 278.615 345.854 279.969C347.312 281.312 348.161 283.177 348.401 285.562H345.385C345.125 283.75 344.557 282.438 343.682 281.625C342.817 280.812 341.604 280.406 340.041 280.406C338.125 280.406 336.619 281.115 335.526 282.531C334.442 283.948 333.901 285.964 333.901 288.578V290.781C333.901 293.25 334.416 295.214 335.448 296.672C336.479 298.13 337.921 298.859 339.776 298.859C341.442 298.859 342.718 298.484 343.604 297.734C344.5 296.974 345.093 295.656 345.385 293.781H348.401ZM374.614 291.797H369.27V301H366.254V278.25H373.786C376.348 278.25 378.317 278.833 379.692 280C381.077 281.167 381.77 282.865 381.77 285.094C381.77 286.51 381.385 287.745 380.614 288.797C379.853 289.849 378.791 290.635 377.426 291.156L382.77 300.812V301H379.551L374.614 291.797ZM369.27 289.344H373.879C375.369 289.344 376.551 288.958 377.426 288.188C378.312 287.417 378.754 286.385 378.754 285.094C378.754 283.688 378.333 282.609 377.489 281.859C376.655 281.109 375.447 280.729 373.864 280.719H369.27V289.344ZM412.608 290.484H402.749V298.547H414.202V301H399.749V278.25H414.046V280.719H402.749V288.031H412.608V290.484ZM431.696 301V278.25H438.118C440.097 278.25 441.847 278.688 443.368 279.562C444.889 280.438 446.061 281.682 446.884 283.297C447.717 284.911 448.139 286.766 448.149 288.859V290.312C448.149 292.458 447.733 294.339 446.899 295.953C446.076 297.568 444.894 298.807 443.353 299.672C441.821 300.536 440.035 300.979 437.993 301H431.696ZM434.696 280.719V298.547H437.853C440.165 298.547 441.962 297.828 443.243 296.391C444.535 294.953 445.181 292.906 445.181 290.25V288.922C445.181 286.339 444.571 284.333 443.353 282.906C442.144 281.469 440.425 280.74 438.196 280.719H434.696ZM469.675 301H466.675V278.25H469.675V301ZM504.185 280.719H496.872V301H493.888V280.719H486.591V278.25H504.185V280.719Z" fill="#414141"/>
</svg>
